<svg width="213" height="13" viewBox="0 0 213 13" fill="none" xmlns="http://www.w3.org/2000/svg">
<path d="M5.84253 12.7661L0 1.37018H1.71042L6.85862 11.3792L12.5149 1.37018H14.4116L20.1017 11.3792L25.216 1.37018H26.9264L21.067 12.7661H19.1533L13.4632 2.74036L7.77311 12.7661H5.84253Z" fill="white"/>
<path d="M33.9448 11.7802C34.7576 11.7802 35.5197 11.7468 36.231 11.6799C36.9535 11.602 37.5858 11.5184 38.1277 11.4293C38.6809 11.3402 39.093 11.2622 39.3639 11.1954L39.6518 12.2982C39.2002 12.4096 38.6583 12.5154 38.0261 12.6157C37.4051 12.7159 36.7334 12.7939 36.0108 12.8496C35.2883 12.9165 34.5657 12.9499 33.8432 12.9499C32.3303 12.9499 31.0658 12.8162 30.0497 12.5488C29.0337 12.2704 28.2659 11.8136 27.7466 11.1787C27.2386 10.5437 26.9845 9.68595 26.9845 8.6054C26.9845 7.53599 27.2498 6.6838 27.7805 6.04884C28.3111 5.41388 29.0675 4.95716 30.0497 4.67866C31.032 4.40017 32.1948 4.26093 33.5383 4.26093C34.4867 4.26093 35.3504 4.32776 36.1294 4.46144C36.9197 4.59512 37.6027 4.81234 38.1785 5.11311C38.7543 5.41388 39.2002 5.82048 39.5163 6.33291C39.8437 6.84533 40.0074 7.48029 40.0074 8.23779C40.0074 8.31577 40.0018 8.40489 39.9905 8.50514C39.9792 8.6054 39.9679 8.70566 39.9566 8.80591C39.9566 8.89503 39.951 8.96744 39.9397 9.02314H27.7635V8.13753H39.0422L38.6019 8.55527C38.6019 7.83119 38.4551 7.22965 38.1615 6.75064C37.8793 6.27164 37.3656 5.91517 36.6205 5.68123C35.8866 5.43616 34.8423 5.31363 33.4875 5.31363C32.3585 5.31363 31.4102 5.41388 30.6425 5.6144C29.886 5.81491 29.3215 6.15467 28.949 6.63368C28.5764 7.10154 28.3901 7.74207 28.3901 8.55527C28.3901 9.21251 28.503 9.75279 28.7288 10.1761C28.9546 10.5994 29.299 10.928 29.7619 11.162C30.2247 11.3959 30.8005 11.5574 31.4892 11.6465C32.1892 11.7356 33.0077 11.7802 33.9448 11.7802Z" fill="white"/>
<path d="M49.1999 12.7661H42.9001V11.5797H49.1491C50.0975 11.5797 50.9103 11.4794 51.5877 11.2789C52.2764 11.0784 52.807 10.7554 53.1796 10.3098C53.5522 9.86418 53.7385 9.26821 53.7385 8.52185C53.7385 7.45244 53.4336 6.67267 52.824 6.18252C52.2143 5.69237 51.2772 5.4473 50.0128 5.4473C49.1322 5.4473 48.2572 5.54756 47.3879 5.74807C46.5186 5.93745 45.6718 6.18252 44.8476 6.48329C44.0235 6.77292 43.2163 7.07369 42.426 7.3856V6.33291C43.0808 5.99871 43.8203 5.67566 44.6444 5.36375C45.4686 5.0407 46.3492 4.77892 47.2863 4.57841C48.2233 4.36675 49.1717 4.26093 50.1313 4.26093C51.8248 4.26093 53.0893 4.61183 53.9247 5.31363C54.7602 6.00429 55.1779 7.06812 55.1779 8.50514C55.1779 9.54113 54.9295 10.371 54.4328 10.9949C53.9473 11.6187 53.253 12.0698 52.3498 12.3483C51.4579 12.6268 50.4079 12.7661 49.1999 12.7661ZM42.2735 12.7661V0.233933H43.7299V12.7661H42.2735Z" fill="white"/>
<path d="M61.5808 12.7661V1.37018H73.1981C73.9093 1.37018 74.5585 1.44259 75.1456 1.5874C75.744 1.72108 76.252 1.94387 76.6697 2.25578C77.0987 2.55656 77.4318 2.96872 77.6689 3.49229C77.906 4.01585 78.0245 4.66195 78.0245 5.43059C78.0245 6.5 77.8157 7.36333 77.3979 8.02057C76.9915 8.66667 76.427 9.13453 75.7044 9.42416C74.9819 9.70266 74.1464 9.8419 73.1981 9.8419H65.0185V12.7661H61.5808ZM72.8086 4.27764H65.0185V6.95116H72.8086C73.3505 6.95116 73.7626 6.8509 74.0448 6.65039C74.3271 6.43873 74.4682 6.0934 74.4682 5.6144C74.4682 5.10197 74.3271 4.75107 74.0448 4.5617C73.7626 4.37232 73.3505 4.27764 72.8086 4.27764Z" fill="white"/>
<path d="M86.0555 10.5103C86.9135 10.5103 87.6925 10.488 88.3925 10.4434C89.0925 10.3877 89.7021 10.3265 90.2215 10.2596C90.7521 10.1817 91.1868 10.1204 91.5254 10.0758L92.169 12.3483C91.6383 12.4709 91.0118 12.5823 90.2892 12.6825C89.5779 12.7828 88.8272 12.8608 88.0369 12.9165C87.2579 12.9722 86.5014 13 85.7676 13C84.1305 13 82.7927 12.844 81.754 12.5321C80.7154 12.2202 79.9476 11.7356 79.4509 11.0784C78.9654 10.41 78.7227 9.55227 78.7227 8.50514C78.7227 7.44687 78.9823 6.58912 79.5017 5.93188C80.0323 5.27464 80.8057 4.79563 81.8218 4.49486C82.8379 4.18295 84.0854 4.02699 85.5644 4.02699C86.5918 4.02699 87.5232 4.0994 88.3586 4.24422C89.1941 4.37789 89.911 4.59512 90.5094 4.89589C91.1077 5.19666 91.565 5.59212 91.8811 6.08226C92.2085 6.57241 92.3722 7.16281 92.3722 7.85347C92.3722 7.98715 92.3665 8.14867 92.3553 8.33805C92.344 8.52742 92.3327 8.70566 92.3214 8.87275C92.3101 9.02871 92.2988 9.14567 92.2875 9.22365H80.45V7.58612H89.6118L89.2562 8.17095C89.2562 7.69195 89.1602 7.30206 88.9683 7.00129C88.7764 6.70051 88.4094 6.48329 87.8675 6.34962C87.3256 6.2048 86.5184 6.13239 85.4458 6.13239C84.4975 6.13239 83.7523 6.2048 83.2104 6.34962C82.6798 6.48329 82.3072 6.71165 82.0927 7.0347C81.8895 7.35776 81.7879 7.80334 81.7879 8.37147C81.7879 8.81705 81.85 9.18466 81.9742 9.47429C82.0984 9.75278 82.3185 9.97001 82.6346 10.126C82.9508 10.2708 83.3854 10.371 83.9386 10.4267C84.4918 10.4824 85.1974 10.5103 86.0555 10.5103Z" fill="white"/>
<path d="M93.8628 12.7661V4.24422H96.674L97.0635 6.53342V12.7661H93.8628ZM103.279 4.02699V6.86761C102.387 6.86761 101.563 6.9066 100.806 6.98458C100.061 7.06255 99.3328 7.19623 98.6216 7.3856C97.9216 7.56384 97.2047 7.79777 96.4708 8.0874C95.7483 8.3659 94.958 8.71123 94.0999 9.12339V7.46915C94.5628 7.12382 95.1104 6.75621 95.7426 6.36632C96.3862 5.9653 97.1031 5.58655 97.8934 5.23008C98.6836 4.87361 99.5304 4.58398 100.434 4.36118C101.348 4.13839 102.296 4.02699 103.279 4.02699Z" fill="white"/>
<path d="M114.478 6.78406H104.199V4.24422H114.478V6.78406ZM109.127 12.7661H105.909V4.44473C105.909 3.38646 106.146 2.53428 106.621 1.88818C107.106 1.24207 107.795 0.768638 108.687 0.467866C109.579 0.155955 110.645 0 111.887 0C112.689 0 113.451 0.038989 114.174 0.116967C114.907 0.194944 115.551 0.284062 116.104 0.384319L115.511 2.72365C114.947 2.65681 114.371 2.59554 113.784 2.53985C113.197 2.48415 112.52 2.4563 111.752 2.4563C111.108 2.4563 110.589 2.512 110.194 2.62339C109.81 2.73479 109.533 2.92417 109.364 3.19152C109.206 3.44773 109.127 3.78749 109.127 4.2108V12.7661Z" fill="white"/>
<path d="M115.04 8.48843C115.04 6.92888 115.661 5.79263 116.903 5.07969C118.156 4.35561 120.058 3.99357 122.61 3.99357C125.161 3.99357 127.058 4.35561 128.3 5.07969C129.553 5.79263 130.18 6.92888 130.18 8.48843C130.18 10.048 129.553 11.1898 128.3 11.9139C127.058 12.6268 125.161 12.9833 122.61 12.9833C120.058 12.9833 118.156 12.6268 116.903 11.9139C115.661 11.1898 115.04 10.048 115.04 8.48843ZM118.241 8.48843C118.241 8.92288 118.365 9.27935 118.613 9.55784C118.862 9.82519 119.302 10.0201 119.934 10.1427C120.566 10.2652 121.458 10.3265 122.61 10.3265C123.762 10.3265 124.648 10.2652 125.269 10.1427C125.901 10.0201 126.341 9.82519 126.59 9.55784C126.849 9.27935 126.979 8.92288 126.979 8.48843C126.979 8.04285 126.849 7.68638 126.59 7.41902C126.341 7.15167 125.901 6.95673 125.269 6.83419C124.648 6.71165 123.762 6.65039 122.61 6.65039C121.458 6.65039 120.566 6.71165 119.934 6.83419C119.302 6.95673 118.862 7.15167 118.613 7.41902C118.365 7.68638 118.241 8.04285 118.241 8.48843Z" fill="white"/>
<path d="M131.669 12.7661V4.24422H134.48L134.869 6.53342V12.7661H131.669ZM141.084 4.02699V6.86761C140.193 6.86761 139.368 6.9066 138.612 6.98458C137.867 7.06255 137.139 7.19623 136.427 7.3856C135.727 7.56384 135.01 7.79777 134.277 8.0874C133.554 8.3659 132.764 8.71123 131.906 9.12339V7.46915C132.369 7.12382 132.916 6.75621 133.548 6.36632C134.192 5.9653 134.909 5.58655 135.699 5.23008C136.489 4.87361 137.336 4.58398 138.239 4.36118C139.154 4.13839 140.102 4.02699 141.084 4.02699Z" fill="white"/>
<path d="M155.103 8.03728V12.7661H151.902V8.57198C151.902 8.13753 151.806 7.78106 151.614 7.50257C151.434 7.21294 151.157 7.00129 150.785 6.86761C150.412 6.72279 149.943 6.65039 149.379 6.65039C148.769 6.65039 148.131 6.72279 147.465 6.86761C146.799 7.01242 146.077 7.20737 145.298 7.45244C144.519 7.69752 143.644 7.98158 142.673 8.30463V6.53342C143.147 6.27721 143.678 6.00428 144.265 5.71465C144.863 5.42502 145.49 5.1521 146.144 4.89589C146.81 4.62853 147.505 4.41688 148.227 4.26093C148.95 4.10497 149.678 4.02699 150.412 4.02699C151.428 4.02699 152.28 4.16624 152.969 4.44473C153.669 4.71208 154.2 5.14096 154.561 5.73136C154.922 6.31063 155.103 7.07926 155.103 8.03728ZM142.402 12.7661V4.26093H145.213L145.602 6.29949V12.7661H142.402ZM164.603 8.03728V12.7661H161.403V8.57198C161.403 8.13753 161.307 7.78106 161.115 7.50257C160.934 7.21294 160.658 7.00129 160.285 6.86761C159.912 6.72279 159.444 6.65039 158.879 6.65039C158.258 6.65039 157.604 6.72279 156.915 6.86761C156.238 7.00129 155.498 7.19066 154.696 7.43573C153.906 7.68081 153.02 7.97044 152.038 8.30463V6.53342C152.523 6.26607 153.065 5.98758 153.663 5.69794C154.262 5.40831 154.9 5.13539 155.577 4.87918C156.255 4.62296 156.96 4.41688 157.694 4.26093C158.428 4.10497 159.173 4.02699 159.929 4.02699C160.934 4.02699 161.781 4.16624 162.47 4.44473C163.17 4.71208 163.7 5.14096 164.061 5.73136C164.423 6.31063 164.603 7.07926 164.603 8.03728Z" fill="white"/>
<path d="M173.227 10.5103C174.085 10.5103 174.864 10.488 175.564 10.4434C176.264 10.3877 176.874 10.3265 177.393 10.2596C177.924 10.1817 178.358 10.1204 178.697 10.0758L179.341 12.3483C178.81 12.4709 178.183 12.5823 177.461 12.6825C176.75 12.7828 175.999 12.8608 175.208 12.9165C174.429 12.9722 173.673 13 172.939 13C171.302 13 169.964 12.844 168.926 12.5321C167.887 12.2202 167.119 11.7356 166.622 11.0784C166.137 10.41 165.894 9.55227 165.894 8.50514C165.894 7.44687 166.154 6.58912 166.673 5.93188C167.204 5.27464 167.977 4.79563 168.993 4.49486C170.009 4.18295 171.257 4.02699 172.736 4.02699C173.763 4.02699 174.695 4.0994 175.53 4.24422C176.366 4.37789 177.083 4.59512 177.681 4.89589C178.279 5.19666 178.737 5.59212 179.053 6.08226C179.38 6.57241 179.544 7.16281 179.544 7.85347C179.544 7.98715 179.538 8.14867 179.527 8.33805C179.516 8.52742 179.504 8.70566 179.493 8.87275C179.482 9.02871 179.47 9.14567 179.459 9.22365H167.622V7.58612H176.783L176.428 8.17095C176.428 7.69195 176.332 7.30206 176.14 7.00129C175.948 6.70051 175.581 6.48329 175.039 6.34962C174.497 6.2048 173.69 6.13239 172.617 6.13239C171.669 6.13239 170.924 6.2048 170.382 6.34962C169.851 6.48329 169.479 6.71165 169.264 7.0347C169.061 7.35776 168.959 7.80334 168.959 8.37147C168.959 8.81705 169.022 9.18466 169.146 9.47429C169.27 9.75278 169.49 9.97001 169.806 10.126C170.122 10.2708 170.557 10.371 171.11 10.4267C171.663 10.4824 172.369 10.5103 173.227 10.5103Z" fill="white"/>
<path d="M181.034 12.7661V4.24422H183.846L184.235 6.53342V12.7661H181.034ZM190.45 4.02699V6.86761C189.558 6.86761 188.734 6.9066 187.978 6.98458C187.233 7.06255 186.504 7.19623 185.793 7.3856C185.093 7.56384 184.376 7.79777 183.642 8.0874C182.92 8.3659 182.13 8.71123 181.272 9.12339V7.46915C181.734 7.12382 182.282 6.75621 182.914 6.36632C183.558 5.9653 184.275 5.58655 185.065 5.23008C185.855 4.87361 186.702 4.58398 187.605 4.36118C188.52 4.13839 189.468 4.02699 190.45 4.02699Z" fill="white"/>
<path d="M196.396 7.24422V12.7661H195.833V7.24422H196.396ZM195.927 12.7661V12.2571H198.967V12.7661H195.927Z" fill="white"/>
<path d="M200.941 7.491V12.7661H200.378V7.491H200.941ZM198.659 7.75321V7.24422H202.668V7.75321H198.659Z" fill="white"/>
<path d="M205.147 12.7661H203.443V7.24422H205.131C205.694 7.24422 206.186 7.3599 206.609 7.59126C207.031 7.82262 207.359 8.14653 207.593 8.56298C207.828 8.97429 207.945 9.45501 207.945 10.0051C207.945 10.5553 207.828 11.0386 207.593 11.455C207.364 11.8663 207.038 12.1877 206.616 12.419C206.199 12.6504 205.71 12.7661 205.147 12.7661ZM204.006 7.50643V12.5039L203.748 12.2571H205.123C205.582 12.2571 205.978 12.1645 206.311 11.9794C206.645 11.7943 206.903 11.5347 207.085 11.2005C207.273 10.8612 207.367 10.4627 207.367 10.0051C207.367 9.54756 207.273 9.1491 207.085 8.80977C206.903 8.47044 206.642 8.2108 206.304 8.03085C205.97 7.84576 205.572 7.75321 205.108 7.75321H203.748L204.006 7.50643Z" fill="white"/>
<path d="M208.74 12.7661H208.17L210.225 7.24422H210.921L213 12.7661H212.414L211.867 11.3008H209.287L208.74 12.7661ZM210.499 8.02314L209.459 10.8149H211.687L210.64 8.02314C210.629 7.98201 210.616 7.94087 210.6 7.89974C210.585 7.85861 210.574 7.82519 210.569 7.79949C210.564 7.82519 210.554 7.86118 210.538 7.90745C210.527 7.94859 210.514 7.98715 210.499 8.02314Z" fill="white"/>
</svg>
