<svg width="1011" height="994" viewBox="0 0 1011 994" fill="none" xmlns="http://www.w3.org/2000/svg">
<path d="M1 1C28.7579 115.693 131.462 372.272 320.216 481.045C508.97 589.818 589.468 848.247 606.122 963.864M259.149 14.8741C285.056 139.741 401.269 416.391 658.862 524.055C916.456 631.718 1000.28 881.545 1010 993M19.597 1.99957C47.2216 117.425 150.899 375.45 344.612 484.143C538.325 592.836 619.063 850.645 635.218 965.963M37.563 2.96494C65.0589 119.099 169.676 378.52 368.18 487.136C566.684 595.752 647.654 852.963 663.326 967.991M54.8989 3.89677C82.2704 120.714 187.795 381.483 390.922 490.025C594.049 598.566 675.242 855.199 690.448 969.948M71.6044 4.79472C98.8562 122.27 205.255 384.339 412.837 492.808C620.419 601.278 701.828 857.354 716.584 971.833M87.6798 5.65847C114.816 123.768 222.057 387.086 433.925 495.486C645.793 603.887 727.41 859.427 741.734 973.647M103.125 6.48868C130.151 125.206 238.199 389.726 454.186 498.06C670.173 606.394 751.989 861.419 765.898 975.39M117.939 7.28502C144.859 126.587 253.682 392.258 473.62 500.528C693.557 608.798 775.564 863.33 789.075 977.063M132.123 8.04715C158.941 127.908 268.507 394.682 492.227 502.891C715.947 611.1 798.137 865.16 811.266 978.663M145.677 8.77574C172.397 129.171 282.673 396.998 510.007 505.149C737.341 613.3 819.706 866.908 832.471 980.193M158.6 9.47013C185.228 130.374 296.18 399.207 526.96 507.302C757.74 615.398 840.272 868.575 852.69 981.652M170.893 10.131C197.433 131.52 309.027 401.308 543.086 509.35C777.144 617.393 859.834 870.161 871.922 983.039M182.555 10.7576C209.011 132.606 321.216 403.301 558.385 511.293C795.553 619.286 878.394 871.665 890.168 984.355M193.587 11.3504C219.964 133.634 332.746 405.186 572.857 513.131C812.967 621.076 895.95 873.088 907.428 985.6M203.989 11.9096C230.291 134.603 343.618 406.964 586.502 514.864C829.386 622.765 912.503 874.43 923.701 986.774M213.76 12.4346C239.993 135.513 353.831 408.634 599.32 516.492C844.81 624.351 928.053 875.69 938.989 987.877M222.901 12.9261C249.068 136.365 363.384 410.196 611.311 518.015C859.239 625.835 942.6 876.869 953.29 988.909M231.411 13.3834C257.517 137.157 372.279 411.651 622.476 519.433C872.672 627.216 956.143 877.967 966.604 989.869M239.291 13.8068C265.341 137.891 380.515 412.997 632.813 520.746C885.111 628.495 968.684 878.983 978.933 990.759M246.54 14.1967C272.538 138.567 388.091 414.237 642.323 521.954C896.554 629.672 980.22 879.918 990.274 991.577M253.16 14.5523C279.11 139.183 395.01 415.368 651.006 523.057C907.003 630.746 990.754 880.772 1000.63 992.324" stroke="url(#paint0_linear_207_36)"/>
<defs>
<linearGradient id="paint0_linear_207_36" x1="159.5" y1="40.5" x2="511.956" y2="552.209" gradientUnits="userSpaceOnUse">
<stop stop-color="#EE46D3"/>
<stop offset="1" stop-color="#6941C6"/>
<stop offset="1" stop-color="#907CFF"/>
</linearGradient>
</defs>
</svg>
